ffmpeg started on 2025-06-06 at 17:53:38
Report written to "D:\Convert\FFMetrics\reports\ssim_report-6.txt"
Log level: 32
Command line:
ffmpeg -hide_banner -nostdin -i "G:\\\xc0\xed\xe8\xec\xe5\\\xce\xed\xe3\xee\xe8\xed\xe3\xe8\\!_36_\xce\xf1\xe5\xed\xfc_2024\\DreamCast\\\xcf\xee\xe2\xe5\xeb\xe8\xf2\xe5\xeb\xfc \xe4\xe5\xec\xee\xed\xee\xe2 2099\\[DC] Maou 2099 - 07_Telegram_HEVC.mkv" -i "G:\\\xc0\xed\xe8\xec\xe5\\\xce\xed\xe3\xee\xe8\xed\xe3\xe8\\!_36_\xce\xf1\xe5\xed\xfc_2024\\DreamCast\\\xcf\xee\xe2\xe5\xeb\xe8\xf2\xe5\xeb\xfc \xe4\xe5\xec\xee\xed\xee\xe2 2099\\[DC] Maou 2099 - 07_Telegram.mp4" -lavfi "[0:v]settb=AVTB,setpts=PTS-STARTPTS,format=pix_fmts=yuv420p10,fps=24000/1001,scale=1920:1080:flags=bicubic[main];[1:v]settb=AVTB,setpts=PTS-STARTPTS,format=pix_fmts=yuv420p,fps=24000/1001,scale=1920:1080:flags=bicubic[ref];[main][ref]ssim=eof_action=endall:stats_file='D\\:/Convert/FFMetrics/logs/ssim_logfile-6.txt'" -f null -
Input #0, matroska,webm, from 'G:\Аниме\Онгоинги\!_36_Осень_2024\DreamCast\Повелитель демонов 2099\[DC] Maou 2099 - 07_Telegram_HEVC.mkv':
  Metadata:
    COMPATIBLE_BRANDS: isomiso2avc1mp41
    MAJOR_BRAND     : isom
    MINOR_VERSION   : 512
    ENCODER         : Lavf61.7.100
  Duration: 00:23:46.69, start: -0.021000, bitrate: 1482 kb/s
  Stream #0:0: Video: hevc (Main 10), yuv420p10le(tv, bt709, progressive), 1920x1080 [SAR 1:1 DAR 16:9], 23.98 fps, 23.98 tbr, 1k tbn (default)
      Metadata:
        HANDLER_NAME    : VideoHandler
        VENDOR_ID       : [0][0][0][0]
        ENCODER         : Lavc61.19.100 libx265
        BPS             : 1284662
        DURATION        : 00:23:46.591708333
        NUMBER_OF_FRAMES: 34204
        NUMBER_OF_BYTES : 229086083
        _STATISTICS_WRITING_APP: mkvpropedit v66.0.0 ('Josie') 64-bit
        _STATISTICS_WRITING_DATE_UTC: 2025-06-02 15:35:51
        _STATISTICS_TAGS: BPS DURATION NUMBER_OF_FRAMES NUMBER_OF_BYTES
  Stream #0:1: Audio: aac (LC), 48000 Hz, stereo, fltp (default)
      Metadata:
        HANDLER_NAME    : SoundHandler
        VENDOR_ID       : [0][0][0][0]
        ENCODER         : Lavc61.19.100 aac
        BPS             : 193377
        DURATION        : 00:23:46.688000000
        NUMBER_OF_FRAMES: 66877
        NUMBER_OF_BYTES : 34486194
        _STATISTICS_WRITING_APP: mkvpropedit v66.0.0 ('Josie') 64-bit
        _STATISTICS_WRITING_DATE_UTC: 2025-06-02 15:35:51
        _STATISTICS_TAGS: BPS DURATION NUMBER_OF_FRAMES NUMBER_OF_BYTES
Input #1, mov,mp4,m4a,3gp,3g2,mj2, from 'G:\Аниме\Онгоинги\!_36_Осень_2024\DreamCast\Повелитель демонов 2099\[DC] Maou 2099 - 07_Telegram.mp4':
  Metadata:
    major_brand     : isom
    minor_version   : 512
    compatible_brands: isomiso2avc1mp41
    encoder         : Lavf61.1.100
  Duration: 00:23:46.66, start: 0.000000, bitrate: 3544 kb/s
  Stream #1:0[0x1](und): Video: h264 (High) (avc1 / 0x31637661), yuv420p(tv, bt709, progressive), 1920x1080 [SAR 1:1 DAR 16:9], 3396 kb/s, 23.98 fps, 23.98 tbr, 24k tbn (default)
      Metadata:
        handler_name    : VideoHandler
        vendor_id       : [0][0][0][0]
        encoder         : Lavc61.3.100 h264_qsv
  Stream #1:1[0x2](und): Audio: aac (HE-AACv2) (mp4a / 0x6134706D), 48000 Hz, stereo, fltp, 144 kb/s (default)
      Metadata:
        handler_name    : SoundHandler
        vendor_id       : [0][0][0][0]
Stream mapping:
  Stream #0:0 (hevc) -> settb:default
  Stream #1:0 (h264) -> settb:default
  ssim:default -> Stream #0:0 (wrapped_avframe)
  Stream #0:1 -> #0:1 (aac (native) -> pcm_s16le (native))
Output #0, null, to 'pipe:':
  Metadata:
    COMPATIBLE_BRANDS: isomiso2avc1mp41
    MAJOR_BRAND     : isom
    MINOR_VERSION   : 512
    encoder         : Lavf61.7.100
  Stream #0:0: Video: wrapped_avframe, yuv420p10le(tv, bt709, progressive), 1920x1080 [SAR 1:1 DAR 16:9], q=2-31, 200 kb/s, 23.98 fps, 23.98 tbn
      Metadata:
        encoder         : Lavc61.19.100 wrapped_avframe
  Stream #0:1: Audio: pcm_s16le, 48000 Hz, stereo, s16, 1536 kb/s (default)
      Metadata:
        HANDLER_NAME    : SoundHandler
        VENDOR_ID       : [0][0][0][0]
        _STATISTICS_TAGS: BPS DURATION NUMBER_OF_FRAMES NUMBER_OF_BYTES
        BPS             : 193377
        DURATION        : 00:23:46.688000000
        NUMBER_OF_FRAMES: 66877
        NUMBER_OF_BYTES : 34486194
        _STATISTICS_WRITING_APP: mkvpropedit v66.0.0 ('Josie') 64-bit
        _STATISTICS_WRITING_DATE_UTC: 2025-06-02 15:35:51
        encoder         : Lavc61.19.100 pcm_s16le
frame=  175 fps=0.0 q=-0.0 size=N/A time=00:00:07.29 bitrate=N/A speed=14.2x    frame=  432 fps=418 q=-0.0 size=N/A time=00:00:18.01 bitrate=N/A speed=17.4x    frame=  662 fps=428 q=-0.0 size=N/A time=00:00:27.61 bitrate=N/A speed=17.9x    frame=  931 fps=452 q=-0.0 size=N/A time=00:00:38.83 bitrate=N/A speed=18.9x    frame= 1184 fps=459 q=-0.0 size=N/A time=00:00:49.38 bitrate=N/A speed=19.1x    frame= 1441 fps=467 q=-0.0 size=N/A time=00:01:00.10 bitrate=N/A speed=19.5x    frame= 1720 fps=477 q=-0.0 size=N/A time=00:01:11.73 bitrate=N/A speed=19.9x    frame= 1918 fps=464 q=-0.0 size=N/A time=00:01:19.99 bitrate=N/A speed=19.4x    frame= 2105 fps=454 q=-0.0 size=N/A time=00:01:27.79 bitrate=N/A speed=18.9x    frame= 2216 fps=431 q=-0.0 size=N/A time=00:01:32.42 bitrate=N/A speed=  18x    frame= 2396 fps=422 q=-0.0 size=N/A time=00:01:39.93 bitrate=N/A speed=17.6x    frame= 2575 fps=417 q=-0.0 size=N/A time=00:01:47.39 bitrate=N/A speed=17.4x    frame= 2748 fps=410 q=-0.0 size=N/A time=00:01:54.61 bitrate=N/A speed=17.1x    frame= 2944 fps=408 q=-0.0 size=N/A time=00:02:02.78 bitrate=N/A speed=  17x    frame= 3142 fps=407 q=-0.0 size=N/A time=00:02:11.04 bitrate=N/A speed=  17x    frame= 3331 fps=404 q=-0.0 size=N/A time=00:02:18.93 bitrate=N/A speed=16.8x    frame= 3497 fps=399 q=-0.0 size=N/A time=00:02:25.85 bitrate=N/A speed=16.7x    frame= 3687 fps=397 q=-0.0 size=N/A time=00:02:33.77 bitrate=N/A speed=16.6x    frame= 3874 fps=396 q=-0.0 size=N/A time=00:02:41.57 bitrate=N/A speed=16.5x    frame= 4019 fps=390 q=-0.0 size=N/A time=00:02:47.62 bitrate=N/A speed=16.3x    frame= 4236 fps=392 q=-0.0 size=N/A time=00:02:56.67 bitrate=N/A speed=16.3x    frame= 4466 fps=394 q=-0.0 size=N/A time=00:03:06.26 bitrate=N/A speed=16.4x    frame= 4694 fps=396 q=-0.0 size=N/A time=00:03:15.77 bitrate=N/A speed=16.5x    frame= 4904 fps=396 q=-0.0 size=N/A time=00:03:24.53 bitrate=N/A speed=16.5x    frame= 5109 fps=397 q=-0.0 size=N/A time=00:03:33.08 bitrate=N/A speed=16.5x    frame= 5287 fps=394 q=-0.0 size=N/A time=00:03:40.51 bitrate=N/A speed=16.4x    frame= 5484 fps=394 q=-0.0 size=N/A time=00:03:48.72 bitrate=N/A speed=16.4x    frame= 5747 fps=398 q=-0.0 size=N/A time=00:03:59.69 bitrate=N/A speed=16.6x    frame= 5996 fps=401 q=-0.0 size=N/A time=00:04:10.08 bitrate=N/A speed=16.7x    frame= 6253 fps=404 q=-0.0 size=N/A time=00:04:20.80 bitrate=N/A speed=16.8x    frame= 6441 fps=403 q=-0.0 size=N/A time=00:04:28.64 bitrate=N/A speed=16.8x    frame= 6643 fps=402 q=-0.0 size=N/A time=00:04:37.06 bitrate=N/A speed=16.8x    frame= 6871 fps=403 q=-0.0 size=N/A time=00:04:46.57 bitrate=N/A speed=16.8x    frame= 7146 fps=407 q=-0.0 size=N/A time=00:04:58.04 bitrate=N/A speed=  17x    frame= 7422 fps=411 q=-0.0 size=N/A time=00:05:09.55 bitrate=N/A speed=17.1x    frame= 7689 fps=414 q=-0.0 size=N/A time=00:05:20.69 bitrate=N/A speed=17.3x    frame= 7885 fps=413 q=-0.0 size=N/A time=00:05:28.87 bitrate=N/A speed=17.2x    frame= 8135 fps=415 q=-0.0 size=N/A time=00:05:39.29 bitrate=N/A speed=17.3x    frame= 8366 fps=416 q=-0.0 size=N/A time=00:05:48.93 bitrate=N/A speed=17.3x    frame= 8579 fps=416 q=-0.0 size=N/A time=00:05:57.81 bitrate=N/A speed=17.3x    frame= 8787 fps=416 q=-0.0 size=N/A time=00:06:06.49 bitrate=N/A speed=17.3x    frame= 9065 fps=418 q=-0.0 size=N/A time=00:06:18.08 bitrate=N/A speed=17.4x    frame= 9308 fps=420 q=-0.0 size=N/A time=00:06:28.22 bitrate=N/A speed=17.5x    frame= 9575 fps=422 q=-0.0 size=N/A time=00:06:39.35 bitrate=N/A speed=17.6x    frame= 9795 fps=422 q=-0.0 size=N/A time=00:06:48.53 bitrate=N/A speed=17.6x    frame=10080 fps=425 q=-0.0 size=N/A time=00:07:00.42 bitrate=N/A speed=17.7x    frame=10365 fps=427 q=-0.0 size=N/A time=00:07:12.30 bitrate=N/A speed=17.8x    frame=10627 fps=429 q=-0.0 size=N/A time=00:07:23.23 bitrate=N/A speed=17.9x    frame=10890 fps=431 q=-0.0 size=N/A time=00:07:34.20 bitrate=N/A speed=  18x    frame=11123 fps=431 q=-0.0 size=N/A time=00:07:43.92 bitrate=N/A speed=  18x    frame=11405 fps=433 q=-0.0 size=N/A time=00:07:55.68 bitrate=N/A speed=18.1x    frame=11633 fps=434 q=-0.0 size=N/A time=00:08:05.19 bitrate=N/A speed=18.1x    frame=11870 fps=434 q=-0.0 size=N/A time=00:08:15.07 bitrate=N/A speed=18.1x    frame=12100 fps=434 q=-0.0 size=N/A time=00:08:24.67 bitrate=N/A speed=18.1x    frame=12331 fps=435 q=-0.0 size=N/A time=00:08:34.30 bitrate=N/A speed=18.1x    frame=12530 fps=434 q=-0.0 size=N/A time=00:08:42.60 bitrate=N/A speed=18.1x    frame=12770 fps=434 q=-0.0 size=N/A time=00:08:52.61 bitrate=N/A speed=18.1x    frame=13059 fps=436 q=-0.0 size=N/A time=00:09:04.66 bitrate=N/A speed=18.2x    frame=13292 fps=436 q=-0.0 size=N/A time=00:09:14.38 bitrate=N/A speed=18.2x    frame=13519 fps=437 q=-0.0 size=N/A time=00:09:23.85 bitrate=N/A speed=18.2x    frame=13777 fps=438 q=-0.0 size=N/A time=00:09:34.61 bitrate=N/A speed=18.3x    frame=13987 fps=437 q=-0.0 size=N/A time=00:09:43.37 bitrate=N/A speed=18.2x    frame=14213 fps=437 q=-0.0 size=N/A time=00:09:52.80 bitrate=N/A speed=18.2x    frame=14480 fps=438 q=-0.0 size=N/A time=00:10:03.93 bitrate=N/A speed=18.3x    frame=14743 fps=439 q=-0.0 size=N/A time=00:10:14.90 bitrate=N/A speed=18.3x    frame=15008 fps=441 q=-0.0 size=N/A time=00:10:25.95 bitrate=N/A speed=18.4x    frame=15271 fps=442 q=-0.0 size=N/A time=00:10:36.92 bitrate=N/A speed=18.4x    frame=15534 fps=443 q=-0.0 size=N/A time=00:10:47.89 bitrate=N/A speed=18.5x    frame=15805 fps=444 q=-0.0 size=N/A time=00:10:59.20 bitrate=N/A speed=18.5x    frame=16057 fps=445 q=-0.0 size=N/A time=00:11:09.71 bitrate=N/A speed=18.5x    frame=16317 fps=445 q=-0.0 size=N/A time=00:11:20.55 bitrate=N/A speed=18.6x    frame=16570 fps=446 q=-0.0 size=N/A time=00:11:31.10 bitrate=N/A speed=18.6x    frame=16845 fps=447 q=-0.0 size=N/A time=00:11:42.57 bitrate=N/A speed=18.6x    frame=17119 fps=448 q=-0.0 size=N/A time=00:11:54.00 bitrate=N/A speed=18.7x    frame=17369 fps=449 q=-0.0 size=N/A time=00:12:04.43 bitrate=N/A speed=18.7x    frame=17549 fps=447 q=-0.0 size=N/A time=00:12:11.93 bitrate=N/A speed=18.7x    frame=17770 fps=447 q=-0.0 size=N/A time=00:12:21.15 bitrate=N/A speed=18.7x    frame=18001 fps=447 q=-0.0 size=N/A time=00:12:30.79 bitrate=N/A speed=18.7x    frame=18217 fps=447 q=-0.0 size=N/A time=00:12:39.80 bitrate=N/A speed=18.6x    frame=18428 fps=446 q=-0.0 size=N/A time=00:12:48.60 bitrate=N/A speed=18.6x    frame=18625 fps=446 q=-0.0 size=N/A time=00:12:56.81 bitrate=N/A speed=18.6x    frame=18856 fps=446 q=-0.0 size=N/A time=00:13:06.45 bitrate=N/A speed=18.6x    frame=19060 fps=445 q=-0.0 size=N/A time=00:13:14.96 bitrate=N/A speed=18.6x    frame=19261 fps=444 q=-0.0 size=N/A time=00:13:23.34 bitrate=N/A speed=18.5x    frame=19505 fps=445 q=-0.0 size=N/A time=00:13:33.52 bitrate=N/A speed=18.6x    frame=19738 fps=445 q=-0.0 size=N/A time=00:13:43.23 bitrate=N/A speed=18.6x    frame=20008 fps=446 q=-0.0 size=N/A time=00:13:54.50 bitrate=N/A speed=18.6x    frame=20258 fps=446 q=-0.0 size=N/A time=00:14:04.92 bitrate=N/A speed=18.6x    frame=20508 fps=447 q=-0.0 size=N/A time=00:14:15.35 bitrate=N/A speed=18.6x    frame=20748 fps=447 q=-0.0 size=N/A time=00:14:25.36 bitrate=N/A speed=18.6x    frame=21004 fps=447 q=-0.0 size=N/A time=00:14:36.04 bitrate=N/A speed=18.7x    frame=21283 fps=448 q=-0.0 size=N/A time=00:14:47.67 bitrate=N/A speed=18.7x    frame=21567 fps=449 q=-0.0 size=N/A time=00:14:59.52 bitrate=N/A speed=18.7x    frame=21773 fps=449 q=-0.0 size=N/A time=00:15:08.11 bitrate=N/A speed=18.7x    frame=22001 fps=449 q=-0.0 size=N/A time=00:15:17.62 bitrate=N/A speed=18.7x    frame=22260 fps=449 q=-0.0 size=N/A time=00:15:28.42 bitrate=N/A speed=18.7x    frame=22491 fps=449 q=-0.0 size=N/A time=00:15:38.06 bitrate=N/A speed=18.7x    frame=22762 fps=450 q=-0.0 size=N/A time=00:15:49.36 bitrate=N/A speed=18.8x    frame=23013 fps=451 q=-0.0 size=N/A time=00:15:59.83 bitrate=N/A speed=18.8x    frame=23273 fps=451 q=-0.0 size=N/A time=00:16:10.67 bitrate=N/A speed=18.8x    frame=23522 fps=451 q=-0.0 size=N/A time=00:16:21.06 bitrate=N/A speed=18.8x    frame=23776 fps=452 q=-0.0 size=N/A time=00:16:31.65 bitrate=N/A speed=18.8x    frame=23996 fps=451 q=-0.0 size=N/A time=00:16:40.83 bitrate=N/A speed=18.8x    frame=24225 fps=451 q=-0.0 size=N/A time=00:16:50.38 bitrate=N/A speed=18.8x    frame=24422 fps=451 q=-0.0 size=N/A time=00:16:58.60 bitrate=N/A speed=18.8x    frame=24666 fps=451 q=-0.0 size=N/A time=00:17:08.77 bitrate=N/A speed=18.8x    frame=24913 fps=451 q=-0.0 size=N/A time=00:17:19.07 bitrate=N/A speed=18.8x    frame=25152 fps=451 q=-0.0 size=N/A time=00:17:29.04 bitrate=N/A speed=18.8x    frame=25412 fps=452 q=-0.0 size=N/A time=00:17:39.89 bitrate=N/A speed=18.8x    frame=25658 fps=452 q=-0.0 size=N/A time=00:17:50.15 bitrate=N/A speed=18.9x    frame=25892 fps=452 q=-0.0 size=N/A time=00:17:59.91 bitrate=N/A speed=18.9x    frame=26142 fps=452 q=-0.0 size=N/A time=00:18:10.33 bitrate=N/A speed=18.9x    frame=26398 fps=453 q=-0.0 size=N/A time=00:18:21.01 bitrate=N/A speed=18.9x    frame=26642 fps=453 q=-0.0 size=N/A time=00:18:31.19 bitrate=N/A speed=18.9x    frame=26915 fps=454 q=-0.0 size=N/A time=00:18:42.57 bitrate=N/A speed=18.9x    frame=27155 fps=454 q=-0.0 size=N/A time=00:18:52.58 bitrate=N/A speed=18.9x    frame=27405 fps=454 q=-0.0 size=N/A time=00:19:03.01 bitrate=N/A speed=18.9x    frame=27667 fps=454 q=-0.0 size=N/A time=00:19:13.94 bitrate=N/A speed=  19x    frame=27900 fps=454 q=-0.0 size=N/A time=00:19:23.66 bitrate=N/A speed=18.9x    frame=28168 fps=455 q=-0.0 size=N/A time=00:19:34.84 bitrate=N/A speed=  19x    frame=28398 fps=455 q=-0.0 size=N/A time=00:19:44.43 bitrate=N/A speed=  19x    frame=28661 fps=455 q=-0.0 size=N/A time=00:19:55.40 bitrate=N/A speed=  19x    frame=28902 fps=455 q=-0.0 size=N/A time=00:20:05.49 bitrate=N/A speed=  19x    frame=29152 fps=456 q=-0.0 size=N/A time=00:20:15.88 bitrate=N/A speed=  19x    frame=29366 fps=455 q=-0.0 size=N/A time=00:20:24.80 bitrate=N/A speed=  19x    frame=29581 fps=455 q=-0.0 size=N/A time=00:20:33.77 bitrate=N/A speed=  19x    frame=29802 fps=455 q=-0.0 size=N/A time=00:20:42.99 bitrate=N/A speed=  19x    frame=30038 fps=455 q=-0.0 size=N/A time=00:20:52.83 bitrate=N/A speed=  19x    frame=30326 fps=456 q=-0.0 size=N/A time=00:21:04.84 bitrate=N/A speed=  19x    frame=30581 fps=456 q=-0.0 size=N/A time=00:21:15.48 bitrate=N/A speed=  19x    frame=30828 fps=456 q=-0.0 size=N/A time=00:21:25.78 bitrate=N/A speed=  19x    frame=31077 fps=456 q=-0.0 size=N/A time=00:21:36.16 bitrate=N/A speed=  19x    frame=31351 fps=457 q=-0.0 size=N/A time=00:21:47.59 bitrate=N/A speed=19.1x    frame=31621 fps=457 q=-0.0 size=N/A time=00:21:58.85 bitrate=N/A speed=19.1x    frame=31911 fps=458 q=-0.0 size=N/A time=00:22:10.95 bitrate=N/A speed=19.1x    frame=32185 fps=459 q=-0.0 size=N/A time=00:22:22.38 bitrate=N/A speed=19.1x    frame=32419 fps=459 q=-0.0 size=N/A time=00:22:32.14 bitrate=N/A speed=19.1x    frame=32678 fps=459 q=-0.0 size=N/A time=00:22:42.94 bitrate=N/A speed=19.1x    frame=32912 fps=459 q=-0.0 size=N/A time=00:22:52.70 bitrate=N/A speed=19.1x    frame=33184 fps=459 q=-0.0 size=N/A time=00:23:04.04 bitrate=N/A speed=19.2x    frame=33441 fps=460 q=-0.0 size=N/A time=00:23:14.76 bitrate=N/A speed=19.2x    frame=33706 fps=460 q=-0.0 size=N/A time=00:23:25.82 bitrate=N/A speed=19.2x    frame=33962 fps=460 q=-0.0 size=N/A time=00:23:36.49 bitrate=N/A speed=19.2x    [Parsed_ssim_10 @ 000002f4b81cbc40] SSIM Y:0.994143 (22.323192) U:0.991503 (20.707272) V:0.991711 (20.814820) All:0.993298 (21.737659)
[out#0/null @ 000002f4ab0c4500] video:14697KiB audio:267508KiB subtitle:0KiB other streams:0KiB global headers:0KiB muxing overhead: unknown
frame=34204 fps=461 q=-0.0 Lsize=N/A time=00:23:46.59 bitrate=N/A speed=19.2x    
